<svg xmlns="http://www.w3.org/2000/svg" viewBox="0 0 180 180">
  <defs>
    <linearGradient id="bg" x1="0%" y1="0%" x2="100%" y2="100%">
      <stop offset="0%" stop-color="#1c1916"/>
      <stop offset="100%" stop-color="#0f0d0c"/>
    </linearGradient>
    <linearGradient id="cup" x1="0%" y1="0%" x2="100%" y2="100%">
      <stop offset="0%" stop-color="#c9a87c"/>
      <stop offset="100%" stop-color="#d4a574"/>
    </linearGradient>
  </defs>
  <rect width="180" height="180" rx="40" fill="url(#bg)"/>
  <g transform="translate(36, 45)">
    <path d="M0 23h80v58c0 11.5-9 20.5-20.5 20.5h-39C9 101.5 0 92.5 0 81V23z" fill="url(#cup)" opacity="0.9"/>
    <path d="M80 31h8.5c8 0 14.5 6 14.5 14s-6.5 14-14.5 14H80" fill="none" stroke="url(#cup)" stroke-width="6" stroke-linecap="round"/>
    <path d="M17 0c0 4.5-3.2 8.5-3.8 13c-0.5 4.5 2.4 8 3.8 12M40 0c0 4.5-3.2 8.5-3.8 13c-0.5 4.5 2.4 8 3.8 12M63 0c0 4.5-3.2 8.5-3.8 13c-0.5 4.5 2.4 8 3.8 12" fill="none" stroke="#c9a87c" stroke-width="4.5" stroke-linecap="round" opacity="0.7"/>
  </g>
</svg>
