<svg xmlns="http://www.w3.org/2000/svg" viewBox="0 0 32 32">
  <defs>
    <linearGradient id="bg" x1="0%" y1="0%" x2="100%" y2="100%">
      <stop offset="0%" stop-color="#1c1916"/>
      <stop offset="100%" stop-color="#0f0d0c"/>
    </linearGradient>
    <linearGradient id="cup" x1="0%" y1="0%" x2="100%" y2="100%">
      <stop offset="0%" stop-color="#c9a87c"/>
      <stop offset="100%" stop-color="#d4a574"/>
    </linearGradient>
  </defs>
  <rect width="32" height="32" rx="8" fill="url(#bg)"/>
  <path d="M8 11h14v10c0 2-1.5 3.5-3.5 3.5h-7C9.5 24.5 8 23 8 21V11z" fill="url(#cup)" opacity="0.9"/>
  <path d="M22 13h1.5c1.4 0 2.5 1.1 2.5 2.5S24.9 18 23.5 18H22" fill="none" stroke="url(#cup)" stroke-width="1.8" stroke-linecap="round"/>
  <path d="M11 7c0 0.8-0.6 1.5-0.7 2.2c-0.1 0.7 0.4 1.4 0.7 2.1M15 7c0 0.8-0.6 1.5-0.7 2.2c-0.1 0.7 0.4 1.4 0.7 2.1M19 7c0 0.8-0.6 1.5-0.7 2.2c-0.1 0.7 0.4 1.4 0.7 2.1" fill="none" stroke="#c9a87c" stroke-width="1.3" stroke-linecap="round" opacity="0.7"/>
</svg>
