<svg xmlns="http://www.w3.org/2000/svg" viewBox="0 0 192 192">
  <defs>
    <linearGradient id="bg" x1="0%" y1="0%" x2="100%" y2="100%">
      <stop offset="0%" stop-color="#1c1916"/>
      <stop offset="100%" stop-color="#0f0d0c"/>
    </linearGradient>
    <linearGradient id="cup" x1="0%" y1="0%" x2="100%" y2="100%">
      <stop offset="0%" stop-color="#c9a87c"/>
      <stop offset="100%" stop-color="#d4a574"/>
    </linearGradient>
  </defs>
  <rect width="192" height="192" rx="42" fill="url(#bg)"/>
  <g transform="translate(40, 50)">
    <path d="M0 25h84v60c0 12-9.5 21.5-21.5 21.5h-41C9.5 106.5 0 97 0 85V25z" fill="url(#cup)" opacity="0.9"/>
    <path d="M84 33h9c8.5 0 15 6.5 15 15s-6.5 15-15 15h-9" fill="none" stroke="url(#cup)" stroke-width="7" stroke-linecap="round"/>
    <path d="M18 0c0 5-3.5 9-4 13.5c-0.5 4.5 2.5 8.5 4 12.5M42 0c0 5-3.5 9-4 13.5c-0.5 4.5 2.5 8.5 4 12.5M66 0c0 5-3.5 9-4 13.5c-0.5 4.5 2.5 8.5 4 12.5" fill="none" stroke="#c9a87c" stroke-width="5" stroke-linecap="round" opacity="0.7"/>
  </g>
</svg>
